<?xml version="1.0" encoding="iso-8859-1"?>
<!-- Generator: Adobe Illustrator 17.1.0, SVG Export Plug-In . SVG Version: 6.00 Build 0)  -->
<!DOCTYPE svg PUBLIC "-//W3C//DTD SVG 1.1//EN" "http://www.w3.org/Graphics/SVG/1.1/DTD/svg11.dtd">
<svg version="1.1" id="Capa_1" xmlns="http://www.w3.org/2000/svg" xmlns:xlink="http://www.w3.org/1999/xlink" x="0px" y="0px"
	 viewBox="0 0 470 470" style="enable-background:new 0 0 470 470;" xml:space="preserve">
<g>
	<path d="M241.495,230.68c-1.34-2.32-3.815-3.75-6.495-3.75s-5.155,1.43-6.495,3.75l-55.014,95.286c-1.34,2.32-1.34,5.18,0,7.5
		s3.815,3.75,6.495,3.75h45.823l-4.611,4.81c-2.866,2.99-2.767,7.738,0.224,10.604c1.454,1.394,3.323,2.086,5.189,2.086
		c1.973,0,3.942-0.773,5.415-2.31l16.775-17.5c2.781-2.901,2.781-7.479,0-10.38l-16.775-17.5c-2.865-2.99-7.614-3.091-10.604-0.224
		c-2.99,2.866-3.09,7.614-0.224,10.604l4.611,4.81h-32.832L235,249.43l42.023,72.786h-6.175c-4.143,0-7.5,3.358-7.5,7.5
		s3.357,7.5,7.5,7.5h19.165c2.68,0,5.155-1.43,6.495-3.75s1.34-5.18,0-7.5L241.495,230.68z"/>
	<path d="M332,174.396c-4.143,0-7.5,3.358-7.5,7.5V429.75c0,4.142,3.357,7.5,7.5,7.5s7.5-3.358,7.5-7.5V181.896
		C339.5,177.754,336.143,174.396,332,174.396z"/>
	<path d="M138,174.396c-4.143,0-7.5,3.358-7.5,7.5v30c0,4.142,3.357,7.5,7.5,7.5s7.5-3.358,7.5-7.5v-30
		C145.5,177.754,142.143,174.396,138,174.396z"/>
	<path d="M138,234.396c-4.143,0-7.5,3.358-7.5,7.5V429.75c0,4.142,3.357,7.5,7.5,7.5s7.5-3.358,7.5-7.5V241.896
		C145.5,237.754,142.143,234.396,138,234.396z"/>
	<path d="M396.814,0H332c-4.143,0-7.5,3.358-7.5,7.5v135.879h-179V7.5c0-4.142-3.357-7.5-7.5-7.5H73.186c-4.143,0-7.5,3.358-7.5,7.5
		v439.816c0,12.508,10.176,22.684,22.684,22.684h293.262c12.508,0,22.684-10.176,22.684-22.684V7.5
		C404.314,3.358,400.957,0,396.814,0z M389.314,447.316c0,4.237-3.447,7.684-7.684,7.684H88.369c-4.236,0-7.684-3.447-7.684-7.684
		V15H130.5v135.879c0,4.142,3.357,7.5,7.5,7.5h194c4.143,0,7.5-3.358,7.5-7.5V15h49.814V447.316z"/>
</g>
<g>
</g>
<g>
</g>
<g>
</g>
<g>
</g>
<g>
</g>
<g>
</g>
<g>
</g>
<g>
</g>
<g>
</g>
<g>
</g>
<g>
</g>
<g>
</g>
<g>
</g>
<g>
</g>
<g>
</g>
</svg>
