<?xml version="1.0" encoding="iso-8859-1"?>
<!-- Generator: Adobe Illustrator 18.1.1, SVG Export Plug-In . SVG Version: 6.00 Build 0)  -->
<svg version="1.1" id="Capa_1" xmlns="http://www.w3.org/2000/svg" xmlns:xlink="http://www.w3.org/1999/xlink" x="0px" y="0px"
	 viewBox="0 0 52.828 52.828" style="enable-background:new 0 0 52.828 52.828;" xml:space="preserve">
<g>
	<g>
		<path style="fill:#030104;" d="M49.861,10.698V4.424C49.861,1.985,47.875,0,45.436,0H7.392C4.953,0,2.968,1.985,2.968,4.424v6.274
			c0,0.97,0.652,1.782,1.538,2.045c-0.934,0.812-1.538,1.994-1.538,3.325v32.338c0,2.438,1.984,4.422,4.424,4.422h38.044
			c2.439,0,4.425-1.984,4.425-4.424V16.068c0-1.332-0.604-2.514-1.538-3.325C49.208,12.48,49.861,11.668,49.861,10.698z
			 M4.968,4.424C4.968,3.087,6.055,2,7.391,2h38.044c1.337,0,2.425,1.087,2.425,2.424v6.274c0,0.078-0.063,0.142-0.142,0.142H5.109
			c-0.079,0-0.141-0.062-0.141-0.142C4.968,10.698,4.968,4.424,4.968,4.424z M47.861,48.405c0,1.337-1.088,2.424-2.425,2.424H7.392
			c-1.336,0-2.424-1.087-2.424-2.422V16.068c0-1.337,1.087-2.424,2.424-2.424h38.044c1.337,0,2.425,1.087,2.425,2.424
			C47.86,16.068,47.86,48.405,47.861,48.405z"/>
		<path style="fill:#030104;" d="M10.862,8.919h9.559c0.905,0,1.642-0.736,1.642-1.642V5.565c0-0.905-0.737-1.642-1.642-1.642
			h-9.559c-0.904,0-1.641,0.736-1.642,1.642v1.712C9.22,8.182,9.957,8.919,10.862,8.919z M10.22,5.566
			c0-0.354,0.289-0.643,0.642-0.643h9.559c0.354,0,0.642,0.288,0.642,0.642v1.712c0,0.354-0.288,0.642-0.642,0.642h-9.559
			c-0.354,0-0.642-0.288-0.642-0.642V5.566z"/>
		<path style="fill:#030104;" d="M33.26,8.918h0.855c0.905,0,1.643-0.736,1.643-1.642V5.564c0-0.905-0.737-1.642-1.643-1.642H33.26
			c-0.904,0-1.641,0.736-1.641,1.642v1.712C31.62,8.181,32.356,8.918,33.26,8.918z M32.619,5.564c0-0.354,0.287-0.642,0.641-0.642
			h0.855c0.354,0,0.643,0.288,0.643,0.642v1.712c0,0.354-0.288,0.642-0.643,0.642H33.26c-0.354,0-0.641-0.288-0.641-0.642V5.564z"/>
		<path style="fill:#030104;" d="M39.49,8.918h0.855c0.903,0,1.64-0.736,1.643-1.642V5.564c0-0.905-0.737-1.642-1.643-1.642H39.49
			c-0.905,0-1.642,0.736-1.642,1.642v1.712C37.849,8.181,38.585,8.918,39.49,8.918z M38.849,5.564c0-0.354,0.288-0.642,0.642-0.642
			h0.855c0.354,0,0.643,0.288,0.643,0.642v1.711c-0.001,0.354-0.289,0.643-0.643,0.643h-0.855c-0.354,0-0.642-0.288-0.642-0.642
			V5.564z"/>
		<path style="fill:#030104;" d="M42.976,31.095h-0.047c-0.699-8.617-7.922-15.419-16.716-15.419
			c-9.255,0-16.785,7.53-16.785,16.785s7.53,16.785,16.785,16.785c8.746,0,15.942-6.728,16.709-15.277h0.054
			c0.632,0,1.142-0.512,1.142-1.143v-0.59C44.118,31.606,43.608,31.095,42.976,31.095z M26.214,47.246
			c-8.152,0-14.785-6.633-14.785-14.785s6.633-14.785,14.785-14.785c7.691,0,14.023,5.905,14.716,13.419H37.9
			c-0.68-5.849-5.657-10.405-11.686-10.405c-6.491,0-11.771,5.281-11.771,11.771s5.28,11.771,11.771,11.771
			c5.979,0,10.92-4.483,11.664-10.263h3.045C40.164,41.416,33.857,47.246,26.214,47.246z M35.843,33.969h1.023
			c-0.737,5.226-5.227,9.263-10.653,9.263c-5.939,0-10.771-4.832-10.771-10.771S20.274,21.69,26.213,21.69
			c5.476,0,10,4.11,10.675,9.405h-1.045c-0.631,0-1.142,0.511-1.142,1.142v0.59C34.701,33.457,35.212,33.969,35.843,33.969z"/>
		<path style="fill:#030104;" d="M20.296,24.711c-2.844,1.946-3.463,4.756-3.488,4.875c-0.057,0.27,0.116,0.535,0.386,0.592
			c0.035,0.008,0.069,0.011,0.104,0.011c0.231,0,0.439-0.161,0.489-0.397c0.005-0.024,0.558-2.533,3.074-4.255
			c0.228-0.156,0.286-0.467,0.13-0.695C20.835,24.614,20.525,24.555,20.296,24.711z"/>
	</g>
</g>
<g>
</g>
<g>
</g>
<g>
</g>
<g>
</g>
<g>
</g>
<g>
</g>
<g>
</g>
<g>
</g>
<g>
</g>
<g>
</g>
<g>
</g>
<g>
</g>
<g>
</g>
<g>
</g>
<g>
</g>
</svg>
