<?xml version="1.0" encoding="iso-8859-1"?>
<!-- Generator: Adobe Illustrator 19.0.0, SVG Export Plug-In . SVG Version: 6.00 Build 0)  -->
<svg version="1.1" id="Layer_1" xmlns="http://www.w3.org/2000/svg" xmlns:xlink="http://www.w3.org/1999/xlink" x="0px" y="0px"
	 viewBox="0 0 511.512 511.512" style="enable-background:new 0 0 511.512 511.512;" xml:space="preserve">
<g>
	<g>
		<g>
			<path d="M419.163,25.923c-32.043-34.56-80.32-34.56-112.363,0c-28.075,30.315-43.691,83.072-39.787,134.4
				c0.64,8.32,1.216,16.917,1.771,25.643c2.475,38.293,4.309,79.531,5.867,114.901c1.088,24.32,2.048,45.909,3.008,61.931
				c0.277,4.779,0.491,10.133,0.704,15.872c1.792,46.955,4.779,123.712,63.275,131.989v-44.267c-18.795-7.915-32-36.224-32-72.235
				c0-37.504,14.251-66.816,34.283-73.28l1.259-22.72h-14.208c-5.888,0-10.667-4.779-10.667-10.667s4.779-10.667,10.667-10.667
				h15.403l1.195-21.333h-16.576c-5.888,0-10.667-4.779-10.667-10.667s4.779-10.667,10.667-10.667h17.771l1.216-21.845
				c3.072,0.192,6.336,0.576,9.237,0.576l4.117-0.064c2.496-0.085,5.227-0.299,8-0.512l-1.216,21.867h14.208
				c5.888,0,10.667,4.779,10.667,10.667s-4.779,10.667-10.667,10.667h-15.403l-1.195,21.333h16.576
				c5.888,0,10.667,4.779,10.667,10.667s-4.779,10.667-10.667,10.667h-17.771l-1.387,24.896c17.6,9.152,29.824,36.501,29.824,71.104
				c0,36.032-13.205,64.341-32,72.235v45.099c43.221,0,68.331-53.611,74.645-159.36c1.259-20.992,5.035-50.325,9.024-81.387
				c3.435-26.709,7.147-55.595,9.963-84.075v-0.043c0.875-8.853,1.664-17.643,2.325-26.325
				C462.875,108.973,447.259,56.237,419.163,25.923z M437.702,158.68c-0.469,6.208-1.003,12.48-1.6,18.795
				c-1.557,0.469-3.072,0.96-4.736,1.429c-2.773,0.789-5.611,1.579-8.619,2.368c-2.965,0.768-5.995,1.515-9.088,2.24
				c-3.051,0.725-6.144,1.387-9.259,2.048c-3.285,0.683-6.549,1.344-9.835,1.941c-3.029,0.555-5.973,1.024-8.896,1.493
				c-3.243,0.491-6.4,0.96-9.451,1.301c-4.8,0.576-9.536,1.088-13.568,1.216l-3.435,0.021c-2.517,0-5.355-0.32-8.064-0.469v-0.043
				c-4.885-0.299-10.027-0.853-15.36-1.664c-0.021,0-0.064,0-0.085-0.021c-4.843-0.747-9.92-1.749-15.061-2.901
				c-1.429-0.32-2.859-0.683-4.309-1.024c-3.925-0.96-7.936-2.027-11.989-3.2c-2.773-0.811-5.589-1.728-8.427-2.645
				c-2.091-0.683-4.181-1.387-6.293-2.133c-0.427-6.379-0.875-12.651-1.344-18.773c-3.435-44.971,10.304-92.501,34.176-118.251
				c24.107-26.005,56.96-26.005,81.067,0C427.398,66.179,441.115,113.688,437.702,158.68z"/>
			<path d="M92.337,25.923c-28.053,30.315-43.669,83.072-39.765,134.4c0.661,8.683,1.451,17.493,2.325,26.325v0.021
				c2.816,28.48,6.528,57.365,9.963,84.075c4.011,31.061,7.787,60.395,9.024,81.387c6.315,105.749,31.424,159.36,74.645,159.36
				v-45.099c-18.795-7.915-32-36.224-32-72.235c0-34.603,12.224-61.952,29.824-71.104l-1.387-24.875h-17.771
				c-5.888,0-10.667-4.779-10.667-10.667s4.779-10.667,10.667-10.667h16.576l-1.195-21.333h-15.403
				c-5.888,0-10.667-4.779-10.667-10.667s4.779-10.667,10.667-10.667h14.208l-1.216-21.867c2.752,0.235,5.483,0.448,8,0.512
				l4.117,0.043c2.901,0,6.165-0.384,9.237-0.576l1.216,21.845h17.771c5.888,0,10.667,4.779,10.667,10.667
				s-4.779,10.667-10.667,10.667h-16.576l1.195,21.333h15.403c5.888,0,10.667,4.779,10.667,10.667s-4.779,10.667-10.667,10.667
				h-14.208l1.259,22.72c20.032,6.464,34.283,35.776,34.283,73.28c0,36.032-13.205,64.341-32,72.235v44.267
				c58.517-8.277,61.504-85.035,63.275-131.989c0.213-5.76,0.427-11.093,0.704-15.872c0.96-16.021,1.92-37.611,3.008-61.931
				c1.579-35.392,3.413-76.608,5.867-114.901c0.555-8.725,1.152-17.344,1.771-25.643c3.904-51.328-11.712-104.085-39.787-134.4
				C172.657-8.637,124.379-8.637,92.337,25.923z M223.259,158.68c-0.469,6.123-0.917,12.395-1.344,18.773
				c-2.112,0.725-4.203,1.451-6.293,2.133c-2.837,0.896-5.632,1.835-8.427,2.645c-4.053,1.173-8.064,2.24-11.989,3.2
				c-1.451,0.363-2.88,0.704-4.309,1.024c-5.163,1.131-10.219,2.133-15.061,2.901c-0.021,0-0.064,0-0.085,0.021
				c-5.333,0.811-10.475,1.365-15.36,1.643v0.043c-2.688,0.192-5.525,0.469-8.064,0.469l-3.435-0.021
				c-4.032-0.128-8.789-0.64-13.568-1.216c-3.051-0.384-6.208-0.832-9.451-1.323c-2.944-0.448-5.888-0.939-8.896-1.493
				c-3.264-0.576-6.549-1.237-9.835-1.941c-3.115-0.64-6.208-1.344-9.259-2.027c-3.093-0.725-6.123-1.493-9.088-2.261
				c-2.987-0.768-5.845-1.557-8.619-2.347c-1.664-0.491-3.179-0.981-4.736-1.429c-0.597-6.336-1.131-12.565-1.6-18.795
				c-3.435-44.992,10.304-92.501,34.176-118.272c24.107-26.005,56.96-26.005,81.067,0
				C212.955,66.179,226.673,113.688,223.259,158.68z"/>
		</g>
	</g>
</g>
<g>
</g>
<g>
</g>
<g>
</g>
<g>
</g>
<g>
</g>
<g>
</g>
<g>
</g>
<g>
</g>
<g>
</g>
<g>
</g>
<g>
</g>
<g>
</g>
<g>
</g>
<g>
</g>
<g>
</g>
</svg>
