<?xml version="1.0" encoding="utf-8"?>

<svg version="1.1" id="Icons" xmlns="http://www.w3.org/2000/svg" xmlns:xlink="http://www.w3.org/1999/xlink" x="0px" y="0px"
	 viewBox="0 0 32 32" style="enable-background:new 0 0 32 32;" xml:space="preserve">
<style type="text/css">
	.st0{fill:none;stroke:#000000;stroke-width:2;stroke-linecap:round;stroke-linejoin:round;stroke-miterlimit:10;}
</style>
<path class="st0" d="M26.1,6.9l-2.6,2.6l-5-5l2.6-2.6c0.8-0.8,2-0.8,2.8,0l2.2,2.2C26.9,4.9,26.9,6.1,26.1,6.9z"/>
<path class="st0" d="M25.9,11.7L16.2,2c0,0,0,0,0,0c-4.2-0.1-7.9,2.5-9.4,6.2C4.5,10,3,13.5,3,17.5c0,3.6,1.2,6.7,3,8.6V29
	c0,1.1,0.9,2,2,2h16c1.1,0,2-0.9,2-2V12C26,11.9,25.9,11.8,25.9,11.7z M10,24.2c-1.7,0-3-3-3-6.7s1.3-6.7,3-6.7s3,3,3,6.7
	S11.7,24.2,10,24.2z"/>
<rect x="17" y="15" class="st0" width="9" height="11"/>
</svg>
