<?xml version="1.0" encoding="iso-8859-1"?>
<!-- Generator: Adobe Illustrator 18.0.0, SVG Export Plug-In . SVG Version: 6.00 Build 0)  -->
<!DOCTYPE svg PUBLIC "-//W3C//DTD SVG 1.1//EN" "http://www.w3.org/Graphics/SVG/1.1/DTD/svg11.dtd">
<svg version="1.1" id="Capa_1" xmlns="http://www.w3.org/2000/svg" xmlns:xlink="http://www.w3.org/1999/xlink" x="0px" y="0px"
	 viewBox="0 0 410.246 410.246" style="enable-background:new 0 0 410.246 410.246;" xml:space="preserve">
<g>
	<path d="M104.124,375.478h-72.5v-64.052h52.506c4.142,0,7.5-3.358,7.5-7.5V193.716c0-4.142-3.358-7.5-7.5-7.5H31.623v-50.738h122
		v13.269c0,4.142,3.358,7.5,7.5,7.5s7.5-3.358,7.5-7.5v-20.769c0-2.485-1.231-4.81-3.288-6.205l-42.379-28.768V43.978
		c0-4.142-3.358-7.5-7.5-7.5H69.79c-4.142,0-7.5,3.358-7.5,7.5v49.027l-42.379,28.768c-2.056,1.396-3.288,3.72-3.288,6.205v255
		c0,4.142,3.358,7.5,7.5,7.5h80c4.142,0,7.5-3.358,7.5-7.5S108.266,375.478,104.124,375.478z M76.629,201.216v95.209H31.623v-95.209
		H76.629z M72.095,104.478h41.056l23.57,16H48.525L72.095,104.478z M77.29,51.478h30.667v38H77.29V51.478z"/>
	<path d="M237.123,166.246h-112c-4.142,0-7.5,3.358-7.5,7.5v229c0,4.142,3.358,7.5,7.5,7.5h112c4.142,0,7.5-3.358,7.5-7.5v-229
		C244.623,169.604,241.265,166.246,237.123,166.246z M229.623,210.246h-9v-29h9V210.246z M156.623,210.246v-29h17v29H156.623z
		 M188.623,181.246h17v29h-17V181.246z M141.623,181.246v29h-9v-29H141.623z M132.623,395.246v-170h97v170H132.623z"/>
	<path d="M386.123,37.246H248.627l-9.807-31.945c-1.215-3.959-5.41-6.184-9.371-4.969l-37.254,11.437
		c-2.9,0.891-4.978,3.44-5.265,6.46s1.273,5.916,3.954,7.336l39.722,21.055l-31.785,31.794c-1.406,1.407-2.196,3.314-2.196,5.303
		v67.03c0,4.142,3.358,7.5,7.5,7.5s7.5-3.358,7.5-7.5V86.822l34.567-34.576h132.433v268h-16.5c-4.142,0-7.5,3.358-7.5,7.5
		s3.358,7.5,7.5,7.5h24c4.142,0,7.5-3.358,7.5-7.5v-283C393.623,40.604,390.265,37.246,386.123,37.246z M213.909,20.794
		l12.771-3.921l3.92,12.769L213.909,20.794z"/>
	<path d="M322.29,249.434v-19.688c0-4.142-3.358-7.5-7.5-7.5h-26.333c-4.142,0-7.5,3.358-7.5,7.5v19.688l-23.885,21.769
		c-1.56,1.421-2.448,3.434-2.448,5.543v105c0,4.142,3.358,7.5,7.5,7.5h79c4.142,0,7.5-3.358,7.5-7.5v-105
		c0-2.11-0.889-4.122-2.448-5.543L322.29,249.434z M291.361,260.246h20.524l9.875,9h-40.274L291.361,260.246z M295.957,237.246
		h11.333v8h-11.333V237.246z M269.623,374.246v-90h64v90H269.623z"/>
	<path d="M211.127,271.886H151.12c-4.142,0-7.5,3.358-7.5,7.5v63.006c0,4.142,3.358,7.5,7.5,7.5h60.006c4.142,0,7.5-3.358,7.5-7.5
		v-63.006C218.627,275.244,215.269,271.886,211.127,271.886z M203.627,334.892H158.62v-48.006h45.006V334.892z"/>
</g>
<g>
</g>
<g>
</g>
<g>
</g>
<g>
</g>
<g>
</g>
<g>
</g>
<g>
</g>
<g>
</g>
<g>
</g>
<g>
</g>
<g>
</g>
<g>
</g>
<g>
</g>
<g>
</g>
<g>
</g>
</svg>
